<svg xmlns="http://www.w3.org/2000/svg" width="240" height="240" viewBox="-50 -50 340 340" version="1.1"><path d="M167.88 63.699c0.594 0.114 1.566 0.114 2.16 0 0.594 -0.115 0.108 -0.208 -1.08 -0.208s-1.674 0.094 -1.08 0.208m-143.214 1.836c-0.438 0.668 -0.709 1.302 -0.602 1.409 0.107 0.107 0.558 -0.44 1.003 -1.215 0.991 -1.726 0.696 -1.868 -0.4 -0.194m92.563 27.677c-0.06 14.438 0.053 26.352 0.251 26.474 0.327 0.203 0.322 -19.271 -0.012 -43.366 -0.071 -5.148 -0.179 2.453 -0.239 16.892M23.636 115.824c-0.123 51.586 -0.193 49.865 2.104 51.731 0.511 0.415 0.382 0.054 -0.328 -0.915l-1.172 -1.6 -0.244 -48.8 -0.245 -48.8 -0.115 48.384M188.64 69.336c0 0.132 0.648 0.575 1.44 0.984 0.792 0.409 1.44 0.636 1.44 0.504 0 -0.132 -0.648 -0.575 -1.44 -0.984 -0.792 -0.409 -1.44 -0.636 -1.44 -0.504M95.04 73.68c1.701 1.716 3.2 3.12 3.332 3.12 0.132 0 -1.152 -1.404 -2.852 -3.12s-3.2 -3.12 -3.332 -3.12c-0.132 0 1.152 1.404 2.852 3.12M201.36 78.72c1.031 1.056 1.983 1.92 2.115 1.92 0.132 0 -0.604 -0.864 -1.635 -1.92s-1.983 -1.92 -2.115 -1.92c-0.132 0 0.604 0.864 1.635 1.92m-101.778 0.36c0.74 1.122 1.437 2.04 1.548 2.04 0.347 0 -1.491 -2.921 -2.212 -3.517 -0.375 -0.31 -0.076 0.355 0.664 1.477m105.108 3.638c0.739 0.969 1.441 1.762 1.56 1.762 0.333 0 -1.745 -2.808 -2.359 -3.188 -0.3 -0.185 0.06 0.456 0.799 1.426m2.669 3.562c0.628 0.858 1.217 1.56 1.308 1.56 0.365 0 -0.826 -1.8 -1.613 -2.439 -0.518 -0.421 -0.402 -0.086 0.304 0.879M140.859 105.12c0 10.956 0.063 15.438 0.14 9.96 0.077 -5.478 0.077 -14.442 0 -19.92 -0.077 -5.478 -0.14 -0.996 -0.14 9.96m25.586 -19.341c0.597 0.115 1.461 0.11 1.92 -0.01s-0.03 -0.214 -1.086 -0.209c-1.056 0.005 -1.431 0.104 -0.834 0.218M175.68 88.08c0.66 0.377 1.416 0.686 1.68 0.686 0.264 0 -0.06 -0.309 -0.72 -0.686s-1.416 -0.686 -1.68 -0.686c-0.264 0 0.06 0.309 0.72 0.686M105.264 96c0 1.452 0.09 2.046 0.2 1.32 0.11 -0.726 0.11 -1.914 0 -2.64s-0.2 -0.132 -0.2 1.32m-22.067 2.64c0.002 1.848 0.089 2.545 0.193 1.549 0.104 -0.996 0.102 -2.508 -0.004 -3.36 -0.106 -0.852 -0.191 -0.037 -0.189 1.811m105.207 -0.48c1.923 2.672 2.455 3.167 1.383 1.288 -0.5 -0.876 -1.326 -1.956 -1.837 -2.4 -0.54 -0.47 -0.35 -0.005 0.454 1.112M105.264 103.2c0 1.452 0.09 2.046 0.2 1.32 0.11 -0.726 0.11 -1.914 0 -2.64s-0.2 -0.132 -0.2 1.32m-23.81 2.646c-0.439 0.921 -0.699 1.674 -0.578 1.674 0.329 0 1.786 -2.939 1.566 -3.158 -0.104 -0.104 -0.549 0.564 -0.988 1.485M76.8 111.905l-2.16 1.956 2.033 -1.525c1.768 -1.327 2.904 -2.447 2.435 -2.401 -0.082 0.008 -1.12 0.895 -2.308 1.971m139.855 4.015c0.001 2.64 0.082 3.659 0.179 2.264 0.097 -1.394 0.096 -3.554 -0.002 -4.8 -0.099 -1.245 -0.178 -0.104 -0.177 2.536m-22.098 0c0.002 1.848 0.089 2.545 0.193 1.549 0.104 -0.996 0.102 -2.508 -0.004 -3.36 -0.106 -0.852 -0.191 -0.037 -0.189 1.811m-130.111 0.105c0.73 0.11 1.81 0.107 2.4 -0.007 0.59 -0.114 -0.007 -0.204 -1.327 -0.201 -1.32 0.004 -1.803 0.097 -1.073 0.207m-3.383 0.885C58.915 118.415 58.56 119.94 58.56 127.68c0 5.491 0.174 7.584 0.717 8.635 0.733 1.418 2.466 2.901 3.35 2.866 0.271 -0.011 -0.098 -0.34 -0.821 -0.732C59.427 137.158 59.04 135.65 59.04 127.68s0.387 -9.478 2.766 -10.769c0.722 -0.392 1.092 -0.721 0.821 -0.732 -0.272 -0.011 -0.975 0.318 -1.563 0.73m38.518 3.211c-0.74 1.122 -1.039 1.787 -0.664 1.477 0.721 -0.596 2.559 -3.517 2.212 -3.517 -0.112 0 -0.809 0.918 -1.548 2.04M216.111 123.36c0 0.924 0.099 1.302 0.219 0.84 0.121 -0.462 0.121 -1.218 0 -1.68 -0.12 -0.462 -0.219 -0.084 -0.219 0.84m-92.034 0.476c0.279 0.452 4.83 3.647 6.482 4.551 1.431 0.783 -0.254 -0.558 -3.512 -2.794 -1.8 -1.236 -3.137 -2.026 -2.97 -1.757m66.816 6.491c-0.439 0.921 -0.699 1.674 -0.578 1.674 0.329 0 1.786 -2.939 1.566 -3.158 -0.104 -0.104 -0.549 0.564 -0.988 1.485m-56.854 -0.396c0.462 0.121 1.218 0.121 1.68 0 0.462 -0.12 0.084 -0.219 -0.84 -0.219s-1.302 0.099 -0.84 0.219m50.502 8.909 -2.382 2.52 2.52 -2.382c1.386 -1.31 2.52 -2.444 2.52 -2.52 0 -0.359 -0.444 0.04 -2.658 2.382M126.72 138.477c0 0.323 4.859 2.744 5.074 2.529 0.098 -0.098 -1.003 -0.758 -2.448 -1.467 -1.445 -0.708 -2.627 -1.186 -2.627 -1.061m84.334 1.449c-0.439 0.921 -0.699 1.674 -0.578 1.674 0.329 0 1.786 -2.939 1.566 -3.158 -0.104 -0.104 -0.549 0.564 -0.988 1.485m-146.374 -0.379c0.858 0.107 2.262 0.107 3.12 0 0.858 -0.106 0.156 -0.193 -1.56 -0.193s-2.418 0.087 -1.56 0.193m7.206 0.472c0.597 0.115 1.461 0.11 1.92 -0.01s-0.03 -0.214 -1.086 -0.209c-1.056 0.005 -1.431 0.104 -0.834 0.218M134.4 142.32c0.66 0.377 1.416 0.686 1.68 0.686 0.264 0 -0.06 -0.309 -0.72 -0.686s-1.416 -0.686 -1.68 -0.686c-0.264 0 0.06 0.309 0.72 0.686m19.8 4.891c0.462 0.121 1.218 0.121 1.68 0 0.462 -0.12 0.084 -0.219 -0.84 -0.219s-1.302 0.099 -0.84 0.219m6.012 0.501c1.129 0.102 2.857 0.1 3.84 -0.003s0.06 -0.186 -2.052 -0.184c-2.112 0.001 -2.916 0.086 -1.788 0.187M99.36 148.056c0 0.132 0.648 0.575 1.44 0.984 0.792 0.409 1.44 0.636 1.44 0.504 0 -0.132 -0.648 -0.575 -1.44 -0.984 -0.792 -0.409 -1.44 -0.636 -1.44 -0.504m102.744 4.742 -3.096 3.443 2.772 -2.64c2.272 -2.164 4.171 -4.45 3.558 -4.283 -0.075 0.021 -1.53 1.586 -3.233 3.48M105.6 151.855c0 0.132 0.648 0.701 1.44 1.265s1.44 0.917 1.44 0.785c0 -0.132 -0.648 -0.701 -1.44 -1.265s-1.44 -0.917 -1.44 -0.785m8.4 5.389c1.168 0.918 7.479 4.157 7.688 3.947 0.083 -0.083 -1.83 -1.175 -4.249 -2.426 -2.419 -1.251 -3.967 -1.935 -3.439 -1.521m81.58 1.3c-1.331 1.109 -2.951 2.403 -3.6 2.877 -1.167 0.851 -1.164 0.852 0.279 0.075 1.387 -0.746 6.486 -4.987 5.98 -4.973 -0.132 0.003 -1.329 0.913 -2.66 2.021M124.32 162.48c0.66 0.377 1.416 0.686 1.68 0.686 0.264 0 -0.06 -0.309 -0.72 -0.686s-1.416 -0.686 -1.68 -0.686c-0.264 0 0.06 0.309 0.72 0.686m-77.76 1.968c0 0.422 -0.734 1.502 -1.632 2.4 -0.898 0.898 -1.46 1.632 -1.25 1.632 0.625 0 3.362 -3.335 3.362 -4.097 0 -0.387 -0.108 -0.703 -0.24 -0.703s-0.24 0.346 -0.24 0.768m-14.977 4.39c2.191 0.089 5.647 0.088 7.68 -0.001 2.034 -0.09 0.241 -0.162 -3.983 -0.162 -4.224 0 -5.888 0.074 -3.697 0.163m118.297 0.453c0.462 0.121 1.218 0.121 1.68 0 0.462 -0.12 0.084 -0.219 -0.84 -0.219s-1.302 0.099 -0.84 0.219m4.8 0.493c0.726 0.11 1.914 0.11 2.64 0s0.132 -0.2 -1.32 -0.2 -2.046 0.09 -1.32 0.2m12.24 -0.005c0.594 0.114 1.566 0.114 2.16 0 0.594 -0.115 0.108 -0.208 -1.08 -0.208s-1.674 0.094 -1.08 0.208" stroke="none" fill="#62aa8e" fill-rule="evenodd" stroke-width="0.48"/><path d="M27.031 64.047C23.83 65.472 24 62.559 24 115.92c0 41.902 0.095 48.471 0.717 49.675 1.388 2.683 2.131 2.885 10.605 2.885 7.222 0 7.838 -0.071 9.071 -1.041 2.724 -2.142 2.647 -0.889 2.647 -43.104V85.44l13.08 0.005c12.698 0.004 13.151 0.037 15.49 1.127 8.461 3.94 10.45 14.005 4.391 22.222 -3.466 4.7 -7.05 6.624 -13.397 7.189C59.675 116.6 59.04 117.581 59.04 127.68c0 10.569 0.475 11.164 9.36 11.731 13.566 0.866 28.476 5.834 37.7 12.562 10.085 7.356 25.34 13.676 39.165 16.226 6.028 1.112 16.296 1.847 20.815 1.489 16.982 -1.343 31.25 -9.303 40.623 -22.668 7.189 -10.25 10.183 -20.671 9.624 -33.501 -0.334 -7.679 -1.855 -14.052 -4.812 -20.16 -2.149 -4.441 -8.052 -12.763 -10.932 -15.415 -3.457 -3.183 -8.833 -6.868 -13.056 -8.949 -5.581 -2.75 -6.312 -3.013 -11.848 -4.266 -4.24 -0.96 -6.191 -1.047 -27.815 -1.242 -12.79 -0.115 -24.174 -0.072 -25.297 0.097 -1.279 0.192 -2.589 0.817 -3.505 1.673L117.6 66.625l0.004 26.328 0.004 26.328 7.702 5.16c8.22 5.507 9.498 5.966 12.409 4.461 2.852 -1.475 2.921 -2.033 2.921 -23.764v-19.759l15 0.162c14.819 0.16 15.039 0.177 18.236 1.41 13.535 5.221 21.93 17.844 20.808 31.287 -0.667 8 -3.91 14.663 -10.113 20.781 -7.072 6.974 -16.172 9.663 -28.332 8.373 -15.251 -1.619 -23.941 -4.875 -37.92 -14.209 -7.883 -5.263 -10.655 -6.83 -16.08 -9.091 -1.716 -0.715 -3.306 -1.476 -3.533 -1.692 -0.227 -0.216 0.229 -1.33 1.014 -2.475 3.352 -4.893 4.729 -8.901 5.336 -15.523 0.59 -6.446 -0.062 -13.417 -1.676 -17.909 -3.651 -10.165 -13.237 -19.025 -23.59 -21.803 -3.475 -0.932 -5.231 -1.007 -27.472 -1.158 -19.722 -0.134 -24.02 -0.047 -25.289 0.518" stroke="none" fill="#04744c" fill-rule="evenodd" stroke-width="0.48"/></svg>