<?xml version="1.0" standalone="no"?>
<!DOCTYPE svg PUBLIC "-//W3C//DTD SVG 20010904//EN"
 "http://www.w3.org/TR/2001/REC-SVG-20010904/DTD/svg10.dtd">
<svg version="1.0" xmlns="http://www.w3.org/2000/svg"
 width="1024.000000pt" height="1024.000000pt" viewBox="0 0 1024.000000 1024.000000"
 preserveAspectRatio="xMidYMid meet">
<metadata>
Created by potrace 1.16, written by Peter Selinger 2001-2019
</metadata>
<g transform="translate(0.000000,1024.000000) scale(0.100000,-0.100000)"
fill="none" stroke="#000" stroke-width="5">
<path d="M1178 7524 c-65 -20 -133 -90 -153 -156 -13 -46 -15 -293 -15 -2078
0 -2277 -6 -2092 76 -2174 73 -73 100 -78 446 -74 l293 3 55 31 c61 35 113
106 124 171 3 21 6 782 6 1691 l0 1652 530 0 c345 0 547 -4 582 -11 206 -43
379 -219 424 -431 43 -202 -34 -449 -192 -617 -151 -160 -298 -226 -541 -241
-101 -6 -131 -11 -170 -32 -54 -27 -107 -91 -123 -146 -13 -49 -13 -595 0
-644 16 -56 69 -119 124 -147 43 -22 65 -25 223 -32 631 -29 1146 -197 1678
-550 327 -216 545 -333 845 -452 498 -197 991 -291 1530 -291 267 0 390 14
605 69 171 44 271 81 440 164 682 334 1146 974 1261 1736 25 165 25 486 0 645
-101 653 -453 1205 -996 1563 -214 140 -517 267 -755 316 -228 46 -228 46
-1285 46 l-1005 0 -41 -22 c-55 -29 -109 -93 -123 -146 -9 -31 -11 -334 -9
-1131 l3 -1088 121 -78 c67 -42 159 -105 204 -140 117 -89 305 -208 349 -220
58 -16 112 -12 167 14 58 27 120 94 134 145 6 23 10 353 10 879 l0 843 598 -4
c564 -3 602 -5 682 -24 255 -63 464 -179 639 -354 193 -192 323 -445 367 -714
20 -122 15 -361 -10 -474 -124 -565 -563 -980 -1131 -1068 -120 -18 -424 -12
-605 12 -377 51 -710 153 -1039 320 -135 68 -286 163 -506 317 -179 125 -425
261 -648 357 -76 32 -141 61 -143 64 -3 3 19 42 49 88 108 166 183 347 224
539 26 123 26 557 0 680 -129 605 -574 1050 -1183 1182 -97 21 -117 22 -1084
24 -842 3 -992 1 -1032 -12z"/>
</g>
</svg>
